<svg width="680" height="680" viewBox="0 0 680 680" xmlns="http://www.w3.org/2000/svg">
  <rect x="0" y="0" width="680" height="680" rx="124" fill="#0e1c38"/>
  <circle cx="340" cy="340" r="244" fill="none" stroke="#0a1628" stroke-width="52"/>
  <circle cx="340" cy="340" r="240" fill="none" stroke="#2a58a8" stroke-width="44"/>
  <circle cx="340" cy="340" r="219" fill="none" stroke="#3d6ec0" stroke-width="2.5"/>
  <circle cx="340" cy="340" r="216" fill="#071220"/>
  <circle cx="340" cy="340" r="190" fill="none" stroke="#0d1f3a" stroke-width="1.5"/>
  <circle cx="524" cy="156" r="17" fill="#162d5e"/>
  <circle cx="524" cy="156" r="10" fill="#3060b0"/>
  <circle cx="156" cy="156" r="17" fill="#162d5e"/>
  <circle cx="156" cy="156" r="10" fill="#3060b0"/>
  <circle cx="156" cy="524" r="17" fill="#162d5e"/>
  <circle cx="156" cy="524" r="10" fill="#3060b0"/>
  <circle cx="524" cy="524" r="17" fill="#162d5e"/>
  <circle cx="524" cy="524" r="10" fill="#3060b0"/>
  <circle cx="174" cy="340" r="13" fill="#38c4bc" opacity="0.55"/>
  <line x1="190" y1="340" x2="422" y2="340" stroke="#38c4bc" stroke-width="19" stroke-linecap="round"/>
  <path d="M424,307 L471,340 L424,373" fill="none" stroke="#38c4bc" stroke-width="19" stroke-linecap="round" stroke-linejoin="round"/>
  <circle cx="491" cy="340" r="13" fill="#38c4bc"/>
</svg>
